<!-- <?xml version="1.0" encoding="UTF-8" standalone="no"?> -->
<!-- Svg Vector Icons : http://www.onlinewebfonts.com/icon -->

<svg
   version="1.1"
   x="0px"
   y="0px"
   viewBox="0 0 489 522"
   enable-background="new 0 0 1000 1000"
   xml:space="preserve"
   id="svg850"
   sodipodi:docname="arrow-down.svg"
   inkscape:version="1.1 (c68e22c387, 2021-05-23)"
   width="489"
   height="522"
   xmlns:inkscape="http://www.inkscape.org/namespaces/inkscape"
   xmlns:sodipodi="http://sodipodi.sourceforge.net/DTD/sodipodi-0.dtd"
   xmlns="http://www.w3.org/2000/svg"
   xmlns:svg="http://www.w3.org/2000/svg"><defs
   id="defs854" /><sodipodi:namedview
   id="namedview852"
   pagecolor="#ffffff"
   bordercolor="#666666"
   borderopacity="1.0"
   inkscape:pageshadow="2"
   inkscape:pageopacity="0.0"
   inkscape:pagecheckerboard="0"
   showgrid="false"
   inkscape:window-width="1366"
   inkscape:window-height="705"
   inkscape:window-x="-8"
   inkscape:window-y="-8"
   inkscape:window-maximized="1"
   inkscape:current-layer="svg850" />
<metadata
   id="metadata840"> Svg Vector Icons : http://www.onlinewebfonts.com/icon </metadata>
<g
   id="g848"
   transform="rotate(180,476.01,475.84454)"><g
     transform="matrix(0.1,0,0,-0.1,0,511)"
     id="g846" /></g>
<g
   id="svgg"
   transform="matrix(-1.098657,-2.1562357,-2.1562357,1.098657,1223.998,674.3099)"
   style="stroke-width:0.413223"><path
     id="path0"
     d="M 239.69645,325.03106 C 243.79945,337.50306 254.81545,347.11606 267.49045,349.28706 272.31545,350.11406 416.57045,343.80106 433.05145,342.04206 451.82945,340.03806 462.83045,327.91206 462.83045,309.22006 462.83045,293.14906 460.72745,290.31506 433.60945,269.85306 412.12045,253.63906 410.19245,251.84706 407.04145,245.15706 L 405.01845,240.86006 404.60845,211.95406 C 404.21345,184.12106 404.13245,182.88106 402.40345,178.55406 394.57645,158.96307 370.42245,151.50609 352.90145,163.27307 346.94145,167.27606 245.09845,290.74006 241.35845,298.49606 237.89645,305.67606 237.16645,317.33806 239.69645,325.03106 M 265.33945,308.41706 C 268.34045,304.08106 362.87345,189.82806 365.99945,186.75906 369.99945,182.83106 372.89345,182.42606 376.26345,185.32306 L 378.45545,187.20706 378.89745,215.59606 C 379.58445,259.77006 381.03045,262.66006 415.44245,288.61706 437.49445,305.25006 437.44045,305.19906 437.44045,309.34206 437.44045,313.72406 434.96545,315.98306 429.53745,316.55706 410.13945,318.60606 272.22645,324.17706 269.77945,323.01006 264.62745,320.55306 262.28045,312.83806 265.33945,308.41706"
     stroke="none"
     fill="#484848"
     fill-rule="evenodd"
     sodipodi:nodetypes="cccsccccccccccccccscsc"
     style="stroke-width:0.206612" /></g></svg>
