<svg xmlns="http://www.w3.org/2000/svg" xmlns:xlink="http://www.w3.org/1999/xlink" version="1.1" width="256" height="256" viewBox="0 0 256 256" xml:space="preserve">

<defs>
</defs>
<g style="stroke: none; stroke-width: 0; stroke-dasharray: none; stroke-linecap: butt; stroke-linejoin: miter; stroke-miterlimit: 10; fill: none; fill-rule: nonzero; opacity: 1;" transform="translate(1.4065934065934016 1.4065934065934016) scale(2.81 2.81)" >
	<path d="M 71.796 23.427 H 61.343 v -10.49 C 61.343 5.804 55.699 0 48.762 0 h -7.523 c -6.937 0 -12.581 5.804 -12.581 12.937 v 10.49 H 18.204 c -1.933 0 -3.5 1.567 -3.5 3.5 v 47.037 C 14.704 82.807 21.897 90 30.74 90 h 28.52 c 8.843 0 16.036 -7.193 16.036 -16.036 V 26.927 C 75.296 24.994 73.729 23.427 71.796 23.427 z M 35.657 12.937 C 35.657 9.664 38.161 7 41.238 7 h 7.523 c 3.077 0 5.581 2.664 5.581 5.937 v 10.49 H 35.657 V 12.937 z M 68.296 73.964 c 0 4.982 -4.054 9.036 -9.036 9.036 H 30.74 c -4.983 0 -9.037 -4.054 -9.037 -9.036 V 30.427 h 6.954 v 6.018 c 0 1.933 1.567 3.5 3.5 3.5 s 3.5 -1.567 3.5 -3.5 v -6.018 h 18.686 v 6.018 c 0 1.933 1.567 3.5 3.5 3.5 s 3.5 -1.567 3.5 -3.5 v -6.018 h 6.953 V 73.964 z" style="stroke: none; stroke-width: 1; stroke-dasharray: none; stroke-linecap: butt; stroke-linejoin: miter; stroke-miterlimit: 10; fill: rgb(226,0,73); fill-rule: nonzero; opacity: 1;" transform=" matrix(1 0 0 1 0 0) " stroke-linecap="round" />
	<path d="M 51.59 73.353 c -0.558 0 -1.116 -0.133 -1.629 -0.402 L 45 70.342 l -4.961 2.608 c -1.179 0.621 -2.608 0.518 -3.686 -0.266 s -1.618 -2.11 -1.393 -3.424 l 0.948 -5.524 l -4.014 -3.911 c -0.954 -0.931 -1.297 -2.321 -0.886 -3.588 c 0.412 -1.268 1.507 -2.191 2.826 -2.383 l 5.546 -0.806 l 2.48 -5.026 c 0.59 -1.194 1.806 -1.951 3.139 -1.951 c 1.332 0 2.549 0.757 3.139 1.951 l 2.48 5.026 l 5.546 0.806 c 1.318 0.191 2.414 1.115 2.826 2.382 c 0.411 1.268 0.068 2.658 -0.886 3.589 l -4.014 3.911 l 0.947 5.524 c 0.226 1.313 -0.314 2.641 -1.392 3.424 C 53.037 73.127 52.315 73.353 51.59 73.353 z M 45 62.888 c 0.56 0 1.119 0.134 1.629 0.402 l 0.313 0.164 l -0.06 -0.348 c -0.195 -1.136 0.182 -2.294 1.006 -3.098 l 0.253 -0.246 l -0.349 -0.051 c -1.141 -0.166 -2.126 -0.882 -2.636 -1.915 L 45 57.48 l -0.156 0.316 c -0.51 1.033 -1.496 1.749 -2.636 1.915 l -0.349 0.051 l 0.252 0.245 c 0.825 0.805 1.202 1.963 1.007 3.099 l -0.06 0.348 l 0.312 -0.164 C 43.881 63.021 44.44 62.888 45 62.888 z" style="stroke: none; stroke-width: 1; stroke-dasharray: none; stroke-linecap: butt; stroke-linejoin: miter; stroke-miterlimit: 10; fill: rgb(226,0,73); fill-rule: nonzero; opacity: 1;" transform=" matrix(1 0 0 1 0 0) " stroke-linecap="round" />
</g>
</svg>