<?xml version="1.0" encoding="UTF-8" standalone="no"?>
<svg
   width="30"
   height="48"
   version="1.1"
   id="svg2395"
   sodipodi:docname="phone.svg"
   inkscape:version="1.1 (c68e22c387, 2021-05-23)"
   xmlns:inkscape="http://www.inkscape.org/namespaces/inkscape"
   xmlns:sodipodi="http://sodipodi.sourceforge.net/DTD/sodipodi-0.dtd"
   xmlns="http://www.w3.org/2000/svg"
   xmlns:svg="http://www.w3.org/2000/svg">
  <defs
     id="defs2399" />
  <sodipodi:namedview
     id="namedview2397"
     pagecolor="#ffffff"
     bordercolor="#666666"
     borderopacity="1.0"
     inkscape:pageshadow="2"
     inkscape:pageopacity="0.0"
     inkscape:pagecheckerboard="0"
     showgrid="false"
     inkscape:window-width="1366"
     inkscape:window-height="705"
     inkscape:window-x="-8"
     inkscape:window-y="-8"
     inkscape:window-maximized="1"
     inkscape:current-layer="svg2395" />
  <path
     d="M 23,2 H 7 C 4.24,2 2,4.24 2,7 V 41 C 2,43.76 4.24,46 7,46 H 23 C 25.76,46 28,43.76 28,41 V 7 C 28,4.24 25.76,2 23,2 Z M 15,44 C 13.34,44 12,42.66 12,41 12,39.34 13.34,38 15,38 16.66,38 18,39.34 18,41 18,42.66 16.66,44 15,44 Z M 24,36 H 6 V 8 H 24 Z"
     id="path2391"
     style="fill:#303030;fill-opacity:1" />
  <path
     fill="none"
     d="M 0,0 H 48 V 48 H 0 Z"
     id="path2393" />
</svg>
