<svg xmlns="http://www.w3.org/2000/svg" xmlns:xlink="http://www.w3.org/1999/xlink" version="1.1" width="256" height="256" viewBox="0 0 256 256" xml:space="preserve">

<defs>
</defs>
<g style="stroke: none; stroke-width: 0; stroke-dasharray: none; stroke-linecap: butt; stroke-linejoin: miter; stroke-miterlimit: 10; fill: none; fill-rule: nonzero; opacity: 1;" transform="translate(1.4065934065934016 1.4065934065934016) scale(2.81 2.81)" >
	<path d="M 64.598 35.119 c -1.104 0 -2 -0.896 -2 -2 V 21.597 C 62.598 11.894 54.703 4 45 4 s -17.597 7.894 -17.597 17.597 v 11.522 c 0 1.104 -0.896 2 -2 2 s -2 -0.896 -2 -2 V 21.597 C 23.403 9.688 33.091 0 45 0 c 11.909 0 21.598 9.688 21.598 21.597 v 11.522 C 66.598 34.224 65.702 35.119 64.598 35.119 z" style="stroke: none; stroke-width: 1; stroke-dasharray: none; stroke-linecap: butt; stroke-linejoin: miter; stroke-miterlimit: 10; fill: rgb(226,0,73); fill-rule: nonzero; opacity: 1;" transform=" matrix(1 0 0 1 0 0) " stroke-linecap="round" />
	<path d="M 45 39.292 L 45 39.292 c -1.105 0 -2 -0.896 -2 -2 c 0 -2.553 -0.628 -4.864 -1.771 -6.507 c -1.206 -1.734 -2.919 -2.614 -5.095 -2.614 c -1.104 0 -2 -0.896 -2 -2 s 0.896 -2 2 -2 c 3.513 0 6.411 1.498 8.38 4.331 C 46.117 30.809 47 33.931 47 37.292 C 47 38.396 46.104 39.292 45 39.292 z" style="stroke: none; stroke-width: 1; stroke-dasharray: none; stroke-linecap: butt; stroke-linejoin: miter; stroke-miterlimit: 10; fill: rgb(0,0,0); fill-rule: nonzero; opacity: 1;" transform=" matrix(1 0 0 1 0 0) " stroke-linecap="round" />
	<path d="M 64.598 28.171 H 25.403 c -1.104 0 -2 -0.896 -2 -2 s 0.896 -2 2 -2 h 39.195 c 1.104 0 2 0.896 2 2 S 65.702 28.171 64.598 28.171 z" style="stroke: none; stroke-width: 1; stroke-dasharray: none; stroke-linecap: butt; stroke-linejoin: miter; stroke-miterlimit: 10; fill: rgb(226,0,73); fill-rule: nonzero; opacity: 1;" transform=" matrix(1 0 0 1 0 0) " stroke-linecap="round" />
	<path d="M 73.528 90 H 16.472 c -2.098 0 -4.121 -0.881 -5.549 -2.417 c -1.429 -1.535 -2.162 -3.616 -2.011 -5.709 l 3.665 -50.67 c 0.285 -3.944 3.605 -7.033 7.56 -7.033 h 5.267 c 1.104 0 2 0.896 2 2 s -0.896 2 -2 2 h -5.267 c -1.867 0 -3.436 1.459 -3.57 3.321 l -3.665 50.67 c -0.072 1.003 0.265 1.961 0.95 2.696 C 14.536 85.595 15.467 86 16.472 86 h 57.056 c 1.005 0 1.937 -0.405 2.621 -1.142 s 1.021 -1.693 0.948 -2.696 l -3.664 -50.67 c -0.135 -1.862 -1.702 -3.321 -3.569 -3.321 h -5.267 c -1.104 0 -2 -0.896 -2 -2 s 0.896 -2 2 -2 h 5.267 c 3.954 0 7.274 3.089 7.56 7.033 l 3.664 50.669 c 0.151 2.093 -0.581 4.174 -2.01 5.71 S 75.626 90 73.528 90 z" style="stroke: none; stroke-width: 1; stroke-dasharray: none; stroke-linecap: butt; stroke-linejoin: miter; stroke-miterlimit: 10; fill: rgb(226,0,73); fill-rule: nonzero; opacity: 1;" transform=" matrix(1 0 0 1 0 0) " stroke-linecap="round" />
	<path d="M 51.941 79.373 H 38.058 c -3.963 0 -7.187 -3.225 -7.187 -7.188 V 50.163 c 0 -1.783 0.658 -3.494 1.854 -4.818 l 6.942 -7.684 c 1.36 -1.505 3.303 -2.369 5.332 -2.369 c 0 0 0 0 0.001 0 c 2.029 0 3.973 0.863 5.333 2.369 l 6.942 7.684 c 1.195 1.324 1.854 3.035 1.854 4.818 v 22.022 C 59.129 76.148 55.904 79.373 51.941 79.373 z M 45 39.292 c -0.913 0 -1.752 0.374 -2.365 1.051 l -6.942 7.684 c -0.53 0.587 -0.822 1.346 -0.822 2.137 v 22.022 c 0 1.758 1.43 3.188 3.187 3.188 h 13.883 c 1.758 0 3.188 -1.43 3.188 -3.188 V 50.163 c 0 -0.791 -0.292 -1.55 -0.822 -2.138 l -6.941 -7.683 C 46.753 39.665 45.913 39.292 45 39.292 z" style="stroke: none; stroke-width: 1; stroke-dasharray: none; stroke-linecap: butt; stroke-linejoin: miter; stroke-miterlimit: 10; fill: rgb(226,0,73); fill-rule: nonzero; opacity: 1;" transform=" matrix(1 0 0 1 0 0) " stroke-linecap="round" />
	<path d="M 44.797 70.359 c -0.307 0 -0.613 -0.07 -0.895 -0.211 c -4.601 -2.301 -7.419 -5.918 -7.539 -9.676 c -0.071 -2.234 0.904 -4.16 2.608 -5.152 c 1.632 -0.949 3.709 -0.915 5.825 0.068 c 2.114 -0.984 4.193 -1.019 5.825 -0.068 c 1.704 0.992 2.679 2.918 2.608 5.152 c -0.119 3.758 -2.938 7.375 -7.539 9.676 C 45.41 70.289 45.104 70.359 44.797 70.359 z M 41.646 58.621 c -0.258 0 -0.481 0.052 -0.662 0.156 c -0.413 0.24 -0.645 0.827 -0.622 1.568 c 0.051 1.606 1.26 3.891 4.435 5.742 c 3.174 -1.852 4.384 -4.136 4.435 -5.742 c 0.023 -0.741 -0.209 -1.328 -0.622 -1.568 c -0.582 -0.336 -1.616 -0.12 -2.771 0.585 c -0.64 0.391 -1.445 0.391 -2.085 0 C 42.959 58.876 42.219 58.621 41.646 58.621 z" style="stroke: none; stroke-width: 1; stroke-dasharray: none; stroke-linecap: butt; stroke-linejoin: miter; stroke-miterlimit: 10; fill: rgb(226,0,73); fill-rule: nonzero; opacity: 1;" transform=" matrix(1 0 0 1 0 0) " stroke-linecap="round" />
</g>
</svg>