<svg xmlns="http://www.w3.org/2000/svg" xmlns:xlink="http://www.w3.org/1999/xlink" version="1.1" width="256" height="256" viewBox="0 0 256 256" xml:space="preserve">

<defs>
</defs>
<g style="stroke: none; stroke-width: 0; stroke-dasharray: none; stroke-linecap: butt; stroke-linejoin: miter; stroke-miterlimit: 10; fill: none; fill-rule: nonzero; opacity: 1;" transform="translate(1.4065934065934016 1.4065934065934016) scale(2.81 2.81)" >
	<path d="M 64.142 36.396 c -1.657 0 -3 -1.343 -3 -3 V 22.142 C 61.142 13.241 53.9 6 45 6 s -16.142 7.241 -16.142 16.142 v 11.254 c 0 1.657 -1.343 3 -3 3 s -3 -1.343 -3 -3 V 22.142 C 22.858 9.933 32.791 0 45 0 s 22.142 9.933 22.142 22.142 v 11.254 C 67.142 35.052 65.799 36.396 64.142 36.396 z" style="stroke: none; stroke-width: 1; stroke-dasharray: none; stroke-linecap: butt; stroke-linejoin: miter; stroke-miterlimit: 10; fill: rgb(226,0,73); fill-rule: nonzero; opacity: 1;" transform=" matrix(1 0 0 1 0 0) " stroke-linecap="round" />
	<path d="M 45 40.471 C 45 40.471 45 40.471 45 40.471 c -1.657 0 -3 -1.343 -3 -3 c 0 -2.249 -0.562 -4.348 -1.542 -5.758 c -0.983 -1.416 -2.33 -2.104 -4.117 -2.104 c -1.657 0 -3 -1.343 -3 -3 s 1.343 -3 3 -3 c 3.735 0 6.947 1.662 9.044 4.679 C 47.071 30.715 48 33.977 48 37.472 C 48 39.128 46.656 40.471 45 40.471 z" style="stroke: none; stroke-width: 1; stroke-dasharray: none; stroke-linecap: butt; stroke-linejoin: miter; stroke-miterlimit: 10; fill: rgb(226,0,73); fill-rule: nonzero; opacity: 1;" transform=" matrix(1 0 0 1 0 0) " stroke-linecap="round" />
	<path d="M 64.142 29.609 H 25.858 c -1.657 0 -3 -1.343 -3 -3 s 1.343 -3 3 -3 h 38.283 c 1.657 0 3 1.343 3 3 S 65.799 29.609 64.142 29.609 z" style="stroke: none; stroke-width: 1; stroke-dasharray: none; stroke-linecap: butt; stroke-linejoin: miter; stroke-miterlimit: 10; fill: rgb(226,0,73); fill-rule: nonzero; opacity: 1;" transform=" matrix(1 0 0 1 0 0) " stroke-linecap="round" />
	<path d="M 72.864 90 H 17.135 c -2.338 0 -4.593 -0.982 -6.186 -2.694 c -1.593 -1.712 -2.41 -4.032 -2.242 -6.364 l 3.579 -49.492 c 0.318 -4.396 4.02 -7.84 8.428 -7.84 h 5.144 c 1.657 0 3 1.343 3 3 s -1.343 3 -3 3 h -5.144 c -1.278 0 -2.351 0.999 -2.443 2.273 l -3.579 49.492 c -0.05 0.686 0.181 1.341 0.65 1.845 S 16.447 84 17.135 84 h 55.729 c 0.688 0 1.325 -0.277 1.794 -0.781 s 0.699 -1.159 0.649 -1.845 l -3.578 -49.492 c -0.092 -1.274 -1.166 -2.273 -2.444 -2.273 h -5.144 c -1.657 0 -3 -1.343 -3 -3 s 1.343 -3 3 -3 h 5.144 c 4.408 0 8.111 3.444 8.429 7.84 l 3.578 49.491 c 0.169 2.333 -0.647 4.652 -2.24 6.365 C 77.458 89.018 75.203 90 72.864 90 z" style="stroke: none; stroke-width: 1; stroke-dasharray: none; stroke-linecap: butt; stroke-linejoin: miter; stroke-miterlimit: 10; fill: rgb(226,0,73); fill-rule: nonzero; opacity: 1;" transform=" matrix(1 0 0 1 0 0) " stroke-linecap="round" />
	<path d="M 51.78 79.62 H 38.22 c -4.448 0 -8.067 -3.618 -8.067 -8.066 V 50.043 c 0 -2.001 0.739 -3.921 2.081 -5.407 l 6.781 -7.505 c 1.526 -1.69 3.708 -2.659 5.986 -2.659 s 4.459 0.969 5.986 2.66 l 6.779 7.504 c 1.343 1.487 2.081 3.407 2.081 5.408 v 21.511 C 59.847 76.002 56.229 79.62 51.78 79.62 z M 45 40.471 c -0.343 0 -0.998 0.089 -1.534 0.681 l -6.78 7.505 c -0.344 0.381 -0.533 0.873 -0.533 1.386 v 21.511 c 0 1.14 0.927 2.066 2.067 2.066 H 51.78 c 1.14 0 2.066 -0.927 2.066 -2.066 V 50.043 c 0 -0.513 -0.189 -1.005 -0.534 -1.387 l -6.778 -7.503 C 45.998 40.56 45.343 40.471 45 40.471 z" style="stroke: none; stroke-width: 1; stroke-dasharray: none; stroke-linecap: butt; stroke-linejoin: miter; stroke-miterlimit: 10; fill: rgb(226,0,73); fill-rule: nonzero; opacity: 1;" transform=" matrix(1 0 0 1 0 0) " stroke-linecap="round" />
	<path d="M 44.802 67.816 c 9.836 -4.918 6.791 -14.604 0 -10.455 C 38.011 53.213 34.966 62.898 44.802 67.816" style="stroke: none; stroke-width: 1; stroke-dasharray: none; stroke-linecap: butt; stroke-linejoin: miter; stroke-miterlimit: 10; fill: rgb(226,0,73); fill-rule: nonzero; opacity: 1;" transform=" matrix(1 0 0 1 0 0) " stroke-linecap="round" />
</g>
</svg>