<?xml version="1.0" encoding="UTF-8" standalone="no"?>
<!-- Created with Inkscape (http://www.inkscape.org/) -->

<svg
   width="20.896444mm"
   height="20.788588mm"
   viewBox="0 0 20.896444 20.788588"
   version="1.1"
   id="svg933"
   inkscape:version="1.1 (c68e22c387, 2021-05-23)"
   sodipodi:docname="star-promotion2.svg"
   xmlns:inkscape="http://www.inkscape.org/namespaces/inkscape"
   xmlns:sodipodi="http://sodipodi.sourceforge.net/DTD/sodipodi-0.dtd"
   xmlns="http://www.w3.org/2000/svg"
   xmlns:svg="http://www.w3.org/2000/svg">
  <sodipodi:namedview
     id="namedview935"
     pagecolor="#ffffff"
     bordercolor="#666666"
     borderopacity="1.0"
     inkscape:pageshadow="2"
     inkscape:pageopacity="0.0"
     inkscape:pagecheckerboard="0"
     inkscape:document-units="mm"
     showgrid="false"
     inkscape:window-width="1366"
     inkscape:window-height="705"
     inkscape:window-x="-8"
     inkscape:window-y="-8"
     inkscape:window-maximized="1"
     inkscape:current-layer="layer1" />
  <defs
     id="defs930" />
  <g
     inkscape:label="Layer 1"
     inkscape:groupmode="layer"
     id="layer1"
     transform="translate(-0.05709351,0.0295498)">
    <path
       style="display:inline;fill:#e20049;fill-opacity:1;stroke:#000000;stroke-width:0.264583px;stroke-linecap:butt;stroke-linejoin:miter;stroke-opacity:1"
       d="M 12.363105,0.22951316 C 14.262067,1.1789911 13.073035,5.9263971 14.293792,6.7402371 15.514553,7.5540761 21.017435,7.6937041 20.816015,9.7155803 20.645965,11.422496 16.08884,12.227392 15.107632,13.644488 13.788179,15.550089 16.045619,20.015492 14.114932,20.555294 11.803845,21.201453 10.317005,17.30677 8.3458547,17.087446 6.0501547,16.83201 3.1936647,20.230899 1.7716847,18.549659 0.30097473,16.81082 3.8495047,14.336082 3.5782247,11.89456 3.3069447,9.4530386 -0.40729525,8.4718331 0.27090473,6.0303111 0.9491047,3.5887891 5.4966647,6.5512761 7.3425247,5.5397061 9.1544551,4.5467261 10.338435,-0.78281988 12.363105,0.22951316 Z"
       id="path55"
       sodipodi:nodetypes="sssssssssss" />
    <path
       style="display:inline;fill:#e20049;fill-opacity:1;stroke:#e20049;stroke-width:0.264583;stroke-opacity:1"
       d="M 12.742515,20.207419 C 12.342655,20.018252 11.931185,19.676738 10.895035,18.674042 9.3249951,17.154691 8.9721047,16.936232 8.0878447,16.936232 7.3210647,16.936232 6.6018947,17.185332 4.9776047,18.013528 3.1334847,18.953804 2.5434147,19.055174 2.0113547,18.523108 1.3247947,17.836548 1.4731147,17.08179 2.6995947,15.020908 3.9046447,12.996041 4.0528647,11.763377 3.2391747,10.533651 3.0877947,10.304874 2.4617047,9.5969233 1.8478647,8.9604286 0.6251547,7.6926021 0.38769473,7.3087551 0.38769473,6.6001241 0.38769473,5.9713071 0.61016473,5.5691461 1.0707147,5.3654221 1.5680347,5.1454341 2.3849647,5.1997051 3.9262947,5.5551251 5.3827847,5.8909821 6.6896547,5.9760301 7.2289947,5.7700521 7.8367647,5.5379431 8.4469247,4.7830421 9.5330551,2.9194181 10.608505,1.0741211 11.144855,0.41757916 11.655105,0.32185516 12.041525,0.24936216 12.395985,0.38994316 12.681095,0.72878213 13.116795,1.2465841 13.269635,1.8902841 13.425739,3.8649721 13.622118,6.3491771 13.731754,6.6732601 14.493793,7.0221321 14.734397,7.1322861 15.684257,7.3961601 16.604594,7.6085221 18.621299,8.0738641 19.431095,8.3325841 19.966414,8.6825771 20.457086,9.0033816 20.715349,9.4343026 20.627941,9.7863523 20.512061,10.253069 19.776316,10.843904 18.605865,11.410166 15.405169,12.958658 15.229234,13.067995 14.867184,13.733625 14.502019,14.404984 14.428923,15.219121 14.588871,16.833402 14.756313,18.523287 14.75958,19.528093 14.598891,19.912681 14.360549,20.483112 13.58542,20.60618 12.742515,20.207419 Z"
       id="path6437" />
  </g>
</svg>
