<svg
   width="210mm"
   height="297mm"
   viewBox="0 0 210 297"
   version="1.1"
   id="svg5"
   inkscape:version="1.1 (c68e22c387, 2021-05-23)"
   sodipodi:docname="star.svg"
   xmlns:inkscape="http://www.inkscape.org/namespaces/inkscape"
   xmlns:sodipodi="http://sodipodi.sourceforge.net/DTD/sodipodi-0.dtd"
   xmlns:xlink="http://www.w3.org/1999/xlink"
   xmlns="http://www.w3.org/2000/svg"
   xmlns:svg="http://www.w3.org/2000/svg"> 
  <defs
     id="defs2" />

  <g>
    <path
       style="fill:#e20049;fill-opacity:1;stroke:#000000;stroke-width:0.264583px;stroke-linecap:butt;stroke-linejoin:miter;stroke-opacity:1"
       d="M 92.20354,45.846354 C 94.102502,46.795832 92.913466,51.543238 94.134227,52.357078 95.354988,53.170917 100.85787,53.310545 100.65645,55.332422 100.4864,57.039338 95.929275,57.844234 94.948067,59.26133 93.628614,61.166931 95.886054,65.632334 93.955367,66.172136 91.64428,66.818295 90.157443,62.923612 88.186294,62.704288 85.890594,62.448852 83.034104,65.847741 81.612118,64.166501 80.141414,62.427662 83.68994,59.952924 83.41866,57.511402 83.14738,55.06988 79.433139,54.088674 80.11134,51.647152 80.789541,49.20563 85.3371,52.168117 87.182958,51.156547 88.994894,50.163567 90.178867,44.834021 92.20354,45.846354 Z"
       id="path55"
       sodipodi:nodetypes="sssssssssss" />
    <path
       style="fill:#e20049;fill-opacity:1;stroke:#e20049;stroke-width:0.999999;stroke-opacity:1"
       d="M 349.91982,248.78461 C 348.40854,248.06965 346.85337,246.77889 342.93722,242.98917 337.00319,237.24674 335.66944,236.42107 332.32737,236.42107 329.4293,236.42107 326.71116,237.36255 320.57211,240.49274 313.60223,244.04654 311.37205,244.42967 309.36109,242.41871 306.76622,239.82384 307.32681,236.97121 311.96233,229.18205 316.51684,221.52901 317.07706,216.87012 314.00167,212.22234 313.42952,211.35767 311.0632,208.68195 308.74317,206.2763 304.12191,201.48451 303.22443,200.03375 303.22443,197.35546 303.22443,194.97883 304.06526,193.45885 305.80594,192.68887 307.68556,191.85742 310.77316,192.06254 316.59865,193.40586 322.10352,194.67524 327.04288,194.99668 329.08133,194.21818 331.37841,193.34092 333.68452,190.48775 337.78957,183.44413 341.85425,176.46978 343.88143,173.98836 345.80992,173.62657 347.27042,173.35258 348.61008,173.88391 349.68768,175.16456 351.33443,177.12161 351.91208,179.55449 352.50208,187.01788 353.2443,196.407 353.65867,197.63188 356.53882,198.95045 357.44819,199.36678 361.03821,200.3641 364.51665,201.16673 372.13884,202.9255 375.19949,203.90334 377.22274,205.22615 379.07725,206.43864 380.05336,208.06732 379.723,209.3979 379.28503,211.16187 376.50426,213.39495 372.08051,215.53515 359.98339,221.38772 359.31844,221.80096 357.95006,224.31673 356.56991,226.85415 356.29364,229.9312 356.89817,236.03242 357.53102,242.41939 357.54337,246.21708 356.93604,247.67064 356.03522,249.8266 353.1056,250.29174 349.91982,248.78461 Z"
       id="path6437"
       transform="scale(0.26458333)" />
  </g>
</svg>
